<mxfile host="app.diagrams.net" agent="Mozilla/5.0 (Windows NT 10.0; Win64; x64) AppleWebKit/537.36 (KHTML, like Gecko) Chrome/132.0.0.0 Safari/537.36" version="26.0.11">
  <diagram name="Strona-1" id="R7dXV7cTwIe_HGW-v9H3">
    <mxGraphModel>
      <root>
        <mxCell id="0" />
        <mxCell id="1" parent="0" />
        <mxCell id="2" value="Klient" style="ellipse;aspect=fixed;strokeWidth=2;whiteSpace=wrap;" vertex="1" parent="1">
          <mxGeometry x="8" y="104" width="57" height="57" as="geometry" />
        </mxCell>
        <mxCell id="3" value="Wypożyczalnia" style="ellipse;aspect=fixed;strokeWidth=2;whiteSpace=wrap;" vertex="1" parent="1">
          <mxGeometry x="263" y="19" width="120" height="120" as="geometry" />
        </mxCell>
        <mxCell id="4" value="Klient" style="ellipse;aspect=fixed;strokeWidth=2;whiteSpace=wrap;" vertex="1" parent="1">
          <mxGeometry x="598" y="8" width="57" height="57" as="geometry" />
        </mxCell>
        <mxCell id="5" value="Klient" style="ellipse;aspect=fixed;strokeWidth=2;whiteSpace=wrap;" vertex="1" parent="1">
          <mxGeometry x="598" y="142" width="57" height="57" as="geometry" />
        </mxCell>
        <mxCell id="6" value="Wybiera samochód" style="curved=1;startArrow=none;endArrow=block;exitX=1.01;exitY=0.29;entryX=0;entryY=0.5;" edge="1" parent="1" source="2" target="3">
          <mxGeometry relative="1" as="geometry">
            <Array as="points">
              <mxPoint x="160" y="79" />
            </Array>
          </mxGeometry>
        </mxCell>
        <mxCell id="7" value="Podpisuje umowę" style="curved=1;startArrow=none;endArrow=block;exitX=0.99;exitY=0.38;entryX=0;entryY=0.5;" edge="1" parent="1" source="3" target="4">
          <mxGeometry relative="1" as="geometry">
            <Array as="points">
              <mxPoint x="494" y="36" />
            </Array>
          </mxGeometry>
        </mxCell>
        <mxCell id="8" value="Dokonuje płatności" style="curved=1;startArrow=none;endArrow=block;exitX=0;exitY=0.66;entryX=0.99;entryY=0.5;" edge="1" parent="1" source="4" target="3">
          <mxGeometry relative="1" as="geometry">
            <Array as="points">
              <mxPoint x="494" y="79" />
            </Array>
          </mxGeometry>
        </mxCell>
        <mxCell id="9" value="Wystawia dokumenty" style="curved=1;startArrow=none;endArrow=block;exitX=0.99;exitY=0.66;entryX=0;entryY=0.35;" edge="1" parent="1" source="3" target="5">
          <mxGeometry relative="1" as="geometry">
            <Array as="points">
              <mxPoint x="494" y="133" />
            </Array>
          </mxGeometry>
        </mxCell>
        <mxCell id="10" value="Odbiera samochód" style="curved=1;startArrow=none;endArrow=block;exitX=0;exitY=0.55;entryX=1.01;entryY=0.72;" edge="1" parent="1" source="5" target="2">
          <mxGeometry relative="1" as="geometry">
            <Array as="points">
              <mxPoint x="494" y="186" />
              <mxPoint x="160" y="186" />
            </Array>
          </mxGeometry>
        </mxCell>
      </root>
    </mxGraphModel>
  </diagram>
</mxfile>
